<svg width="122.88" height="119.45" xmlns="http://www.w3.org/2000/svg">
 <style type="text/css">.st0{fill-rule:evenodd;clip-rule:evenodd;}</style>

 <g>
  <title>background</title>
  <rect fill="none" id="canvas_background" height="121.45" width="124.88" y="-1" x="-1"/>
 </g>
 <g>
  <title>Layer 1</title>
  <ellipse stroke="#000" ry="59" rx="59" id="svg_4" cy="62.178131" cx="60.940003" stroke-width="0" fill="#ffffff"/>
  <g stroke="null" id="svg_1">
   <path stroke="null" id="svg_2" d="m25.510514,42.9429l71.381044,0l0,53.022649l-71.381044,0l0,-53.022649l0,0zm8.57488,39.184124l10.849118,0l0,8.15293l-10.849118,0l0,-8.15293l0,0zm14.467874,-22.284674l10.849118,0l0,8.15293l-10.849118,0l0,-8.15293l0,0zm-14.467874,0l10.849118,0l0,8.15293l-10.849118,0l0,-8.15293l0,0zm43.410774,11.142337l10.849118,0l0,8.15293l-10.849118,0l0,-8.15293l0,0zm-14.475026,0l10.849118,0l0,8.15293l-10.849118,0l0,-8.15293l0,0zm-14.467874,0l10.849118,0l0,8.15293l-10.849118,0l0,-8.15293l0,0zm-14.467874,0l10.849118,0l0,8.15293l-10.849118,0l0,-8.15293l0,0zm43.410774,11.142337l10.849118,0l0,8.15293l-10.849118,0l0,-8.15293l0,0zm-14.475026,0l10.849118,0l0,8.15293l-10.849118,0l0,-8.15293l0,0zm-14.467874,0l10.849118,0l0,8.15293l-10.849118,0l0,-8.15293l0,0zm-15.819544,-28.506647c19.052109,0 38.097067,0 57.149176,0c0.700866,0 1.273001,0.572135 1.273001,1.273001l0,36.959948c0,0.700866 -0.572135,1.273001 -1.273001,1.273001l-57.149176,0c-0.700866,0 -1.273001,-0.572135 -1.273001,-1.273001l0,-34.885957c-0.007152,-1.966715 0.157337,-3.225413 1.273001,-3.346992l0,0zm-10.684629,-9.018284l-3.318385,0l-1.73071,0l0,-1.73071l0,-8.531969l0,-1.115664l1.029844,-0.457708l41.250963,-18.451367l0.700866,-0.314674l0.693714,0.307523l43.167617,19.145081l1.036995,0.457708l0,1.122816l0,7.831103l0,1.73071l-1.73071,0l-2.796312,0l0,53.094166l0,1.73071l-1.73071,0l-74.842464,0l-1.73071,0l0,-1.73071l0,-53.087015l0,0zm38.704961,-20.260745l9.340111,12.172181l-18.308333,0l8.968223,-12.172181l0,0z" class="st0"/>
  </g>
 </g>
</svg>